# xmcd
#
# Track frame offsets:
#	150
#	11216
#	23475
#	33906
#	45621
#	57684
#	67998
#	77998
#	91049
#	103988
#	116688
#	129202
#
# Disc length: 1886 seconds
#
# Revision: 0
# Processed by: cddbd v1.5.1PL2 Copyright (c) Steve Scherf et al.
# Submitted via: EasyCDDAExtractor 4.6.9.1
#
DISCID=97075c0c
DTITLE=Eddy Arnold - The Best Of Eddy Arnold
DYEAR=1967
DGENRE=Country
TTITLE0=Bouquet Of Roses
TTITLE1=Make The World Go Away
TTITLE2=Anytime
TTITLE3=I'll Hold You In My Heart ('till I Can Hold You In My Arms)
TTITLE4=I Want To Go With You
TTITLE5=The Last Word In Lonesome Is Me
TTITLE6=What's He Doin' In My World
TTITLE7=Just A Little Lovin' (Will Go A Long Way)
TTITLE8=I Really Don't Want To Know
TTITLE9=You Don't Know Me
TTITLE10=That's How Much I Love You
TTITLE11=Cattle Call
EXTD=
EXTT0=
EXTT1=
EXTT2=
EXTT3=
EXTT4=
EXTT5=
EXTT6=
EXTT7=
EXTT8=
EXTT9=
EXTT10=
EXTT11=
PLAYORDER=
